<svg xmlns="http://www.w3.org/2000/svg" xmlns:xlink="http://www.w3.org/1999/xlink" viewBox="0 0 79.09566 72"><defs><style>.a{fill:url(#a);}.b{fill:url(#b);}.c{fill:url(#c);}</style><linearGradient id="a" x1="-61.94822" y1="196.45833" x2="-60.94822" y2="196.45833" gradientTransform="matrix(79.09566, 0, 0, -72.00001, 4899.83558, 14181.00111)" gradientUnits="userSpaceOnUse"><stop offset="0" stop-color="#7f00ff"/><stop offset="1" stop-color="#e100ff"/></linearGradient><linearGradient id="b" x1="-62.40235" y1="196.43463" x2="-61.40235" y2="196.43463" gradientTransform="matrix(53.48177, 0, 0, -45.89382, 3349.97441, 9063.97965)" xlink:href="#a"/><linearGradient id="c" x1="-63.31103" y1="196.37362" x2="-62.31103" y2="196.37362" gradientTransform="matrix(32.4531, 0, 0, -23.73788, 2077.78978, 4721.00801)" xlink:href="#a"/></defs><path class="a" d="M.00687,43.60462C.46561,19.87451,25.31125,2.63618,52.74683.33655,59.42735-.22122,70.73-.3778,79.09566,2.24092L71.18026,16.8436a65.67724,65.67724,0,0,0-18.55107-1.52095C24.6443,16.29091,7.03271,32.71079,6.64,49.31264A24.65752,24.65752,0,0,0,19.1411,71.52857L18.58926,72C6.32344,65.89587-.24282,56.29194.00687,43.60462Z"/><path class="b" d="M13.03189,49.17552C15.80719,35.3185,31.241,24.73361,55.49336,25.999A67.65006,67.65006,0,0,1,66.0681,27.25076L59.05749,40.1776c-2.182-.29962-5.58868-.90648-8.51294-1.06391C31.43739,38.11412,19.6811,46.01935,17.731,56.0998a15.10035,15.10035,0,0,0,6.71015,15.26372l-.55523.42658C14.403,66.54251,11.3315,57.647,13.03189,49.17552Z"/><path class="c" d="M24.48433,56.19206c4.64158-7.80537,18.62979-10.33267,31.11905-7.29923l-3.66146,6.71184c-9.9281-2.28439-21.422-.733-24.71615,4.99028-1.791,3.1147-.79222,7.39487,1.23064,10.41562l-.37071.37326C23.4162,67.20692,21.7175,60.84887,24.48433,56.19206Z"/></svg>